<?xml version="1.0" encoding="UTF-8"?>
<svg version="1.1" xmlns="http://www.w3.org/2000/svg" width="100" height="100">
<path d="M0 0 C4.88006234 2.62528299 8.1174457 6.04374335 9.86328125 11.28125 C10.51192823 18.65030508 10.39531389 23.23853982 5.86328125 29.28125 C5.47799547 31.25427197 5.47799547 31.25427197 5.36328125 33.34375 C4.78035495 37.93429458 4.34986906 39.27083229 0.86328125 42.28125 C-2.83246929 43.06718834 -6.48640372 43.0293733 -10.25390625 43.015625 C-11.34381866 43.02515198 -12.43373108 43.03467896 -13.55667114 43.04449463 C-15.8614792 43.05665699 -18.1663871 43.05582142 -20.47119141 43.04296875 C-23.99299119 43.03131199 -27.5099762 43.08347266 -31.03125 43.140625 C-33.27213205 43.14451093 -35.51302442 43.14463488 -37.75390625 43.140625 C-38.80407928 43.16106873 -39.85425232 43.18151245 -40.93624878 43.20257568 C-48.07246168 43.08979102 -48.07246168 43.08979102 -51.14932251 40.75222778 C-53.90321121 37.63775497 -55.96594449 34.97640996 -55.76171875 30.65625 C-55.46191447 26.4661283 -54.28623074 24.16830266 -51.13671875 21.28125 C-48.07696432 19.27328616 -46.99185989 19.28125 -43.13671875 19.28125 C-43.04390625 17.4559375 -43.04390625 17.4559375 -42.94921875 15.59375 C-42.39939331 11.09155617 -40.68650323 9.15488506 -37.13671875 6.28125 C-33.43140405 3.8110402 -30.43140046 3.93137776 -26.13671875 4.28125 C-25.43546875 4.549375 -24.73421875 4.8175 -24.01171875 5.09375 C-21.74218232 5.53798368 -21.74218232 5.53798368 -19.07421875 2.90625 C-18.10484375 2.04 -17.13546875 1.17375 -16.13671875 0.28125 C-11.04065361 -1.41743838 -5.14382507 -1.73028119 0 0 Z " fill="#F2F1F0" transform="translate(73.13671875,29.71875)"/>
<path d="M0 0 C4.88006234 2.62528299 8.1174457 6.04374335 9.86328125 11.28125 C10.85900288 22.59330067 10.85900288 22.59330067 7.98828125 26.96875 C5.86328125 29.28125 5.86328125 29.28125 3.86328125 30.28125 C3.30640625 29.641875 2.74953125 29.0025 2.17578125 28.34375 C-0.35738436 26.08444013 -1.82013299 25.64975953 -5.13671875 25.28125 C-5.25789063 24.71535156 -5.3790625 24.14945313 -5.50390625 23.56640625 C-5.67148438 22.83292969 -5.8390625 22.09945312 -6.01171875 21.34375 C-6.17414063 20.61285156 -6.3365625 19.88195312 -6.50390625 19.12890625 C-6.96633398 17.07424706 -6.96633398 17.07424706 -9.13671875 16.28125 C-10.67695871 16.21174459 -12.22006863 16.19672643 -13.76171875 16.21875 C-14.57898437 16.22777344 -15.39625 16.23679687 -16.23828125 16.24609375 C-16.86476563 16.25769531 -17.49125 16.26929687 -18.13671875 16.28125 C-18.56984375 14.858125 -18.56984375 14.858125 -19.01171875 13.40625 C-19.90496984 10.22913422 -19.90496984 10.22913422 -22.13671875 8.28125 C-22.07421875 6.40625 -22.07421875 6.40625 -21.13671875 4.28125 C-15.2543555 -1.13671615 -7.6945194 -2.58828441 0 0 Z " fill="#EC6D4B" transform="translate(73.13671875,29.71875)"/>
</svg>
